
<svg width="50px" height="25px" viewBox="0 0 50 25" version="1.1" xmlns="http://www.w3.org/2000/svg" xmlns:xlink="http://www.w3.org/1999/xlink">
    <g id="Page-1" stroke="none" stroke-width="1" fill="none" fill-rule="evenodd">
        <g id="Canada" fill-rule="nonzero">
            <polygon id="Path" fill="#FF0000" points="0 0 50 0 50 25 0 25"></polygon>
            <polygon id="Path" fill="#FFFFFF" points="12.5 0 37.5 0 37.5 25 12.5 25"></polygon>
            <path d="M24.9996,2.34375 L23.294,5.525 C23.1005,5.87075 22.7537,5.8387 22.4069,5.6456 L21.17205,5.00615 L22.09245,9.8925 C22.28595,10.7852 21.66495,10.7852 21.35855,10.39925 L19.2035,7.9867 L18.8536,9.21185 C18.8133,9.3727 18.6359,9.5417 18.36975,9.50145 L15.64465,8.9285 L16.3604,11.53075 C16.51365,12.10975 16.63315,12.3495 16.20575,12.50225 L15.23445,12.95875 L19.92545,16.76915 C20.11115,16.91325 20.20495,17.1725 20.13885,17.40725 L19.72835,18.7546 C21.3435,18.5684 22.79075,18.2883 24.40675,18.1158 C24.54945,18.10055 24.78825,18.336 24.78725,18.5013 L24.57325,23.4375 L25.3586,23.4375 L25.235,18.5119 C25.234,18.3466 25.45065,18.10055 25.5933,18.1158 C27.2093,18.2883 28.6566,18.5684 30.2718,18.7546 L29.86125,17.40725 C29.79515,17.1725 29.88895,16.91325 30.0746,16.76915 L34.7657,12.95875 L33.79435,12.50225 C33.36695,12.3495 33.48645,12.10975 33.6397,11.53075 L34.35545,8.9285 L31.63035,9.5015 C31.3642,9.5417 31.18685,9.3727 31.1465,9.21185 L30.7966,7.9867 L28.6416,10.3992 C28.3351,10.7852 27.7141,10.7852 27.90765,9.8925 L28.828,5.00615 L27.5932,5.6456 C27.2464,5.8387 26.89965,5.87075 26.7061,5.525" id="Path" fill="#FF0000"></path>
        </g>
    </g>
</svg>
